<?xml version="1.0" encoding="UTF-8"?>
<svg width="1170.2" height="885.44" version="1.1" viewBox="0 0 748.9 566.68" xml:space="preserve" xmlns="http://www.w3.org/2000/svg" xmlns:xlink="http://www.w3.org/1999/xlink"><defs><linearGradient id="linearGradient11" x1="162.33" x2="246.57" y1="158.82" y2="163.21" gradientTransform="translate(-116.32 -183.73)" gradientUnits="userSpaceOnUse"><stop stop-color="#ffda44" offset="0"/><stop stop-color="#ffda44" stop-opacity="0" offset="1"/></linearGradient><filter id="filter18" x="-.015687" y="-.044633" width="1.0314" height="1.0893" color-interpolation-filters="sRGB"><feGaussianBlur stdDeviation="3.6755862"/></filter></defs>








<g transform="translate(273.8 120.96)"><path d="m-260.23-94.392 727.62-14.039-8.6621 347.13-700.76 195.18z" fill="#2ad4ff"/><path d="m-252.87-87.8 711.67-16.07-7.347 302.81-688.84 170.48z" fill="#eefbff"/><path d="m53.307 212.25-108.3-63.996c-11.461-6.7715-29.763-4.0652-41.252 6.2886l-145.22 130.89 4.2573 138.11 137.31-36.466c7.8225-2.0775 15.147-6.4162 20.463-11.807l132.99-134.87c9.7466-9.8864 9.6444-22.3-0.25509-28.151z" fill="#66b31b"/><path d="m332.48 37.797c-9.8927-5.5287-26.084-3.702-36.508 4.2845l-123.05 95.651-346.67 269.63 630.46-173.8c1.7779-71.762-3.4098 130.61 2.8749-123.22z" fill="#7bd921"/><path d="m-19.945 65.724c-46.902 5.1575-87.569-21.443-88.42-59.765-0.85692-38.565 38.938-71.604 86.422-73.345 45.128-1.6548 80.463 25.85 80.761 61.058 0.29563 35.005-34.163 67.148-78.762 72.052z" fill="url(#linearGradient11)"/></g><path d="m727.49 227.86-2.8679 114.72 8.3393-0.36495 2.8814-115.47-8.3255-7e-3z" fill="#2ad4ff" stroke-width="0"/><g fill="#fff" stroke="#000" stroke-width="5.7461">
<path d="m717.64 2.873h28.385v27.338h-28.385z"/><path d="m2.873 17.764h28.385v27.338h-28.385z"/><path d="m20.246 536.47h28.385v27.338h-28.385z"/><path d="m20.246 536.47h28.385v27.338h-28.385z"/><path d="m715.16 345.37h28.385v27.338h-28.385z"/></g><g fill="#006680"><path d="m128.56 551.6-1.3812-141.05 52.319-6.0059c8.759-1.0055 15.363-1.3297 19.88-0.98559 6.276 0.37761 11.48 1.8771 15.638 4.4857 4.1249 2.5273 7.4 6.3738 9.839 11.532 2.4804 5.1209 3.7001 10.925 3.6699 17.427-0.0516 11.126-3.3847 21.074-10.045 29.932-6.7224 8.8805-19.023 14.978-37.27 18.306l-34.573 6.3054 0.39686 55.845zm17.96-76.433 34.924-5.9043c11.117-1.8796 18.889-5.3143 23.446-10.306 4.5273-4.959 6.7885-11.254 6.8057-18.92 0.0125-5.5644-1.3177-10.132-4.0021-13.712-2.642-3.6692-6.1709-5.8669-10.602-6.5814-2.8752-0.43042-8.223-0.14524-16.11 0.86714l-34.817 4.469zm154.92 9.081 13.209-0.80035c-2.2144 9.2685-6.1696 16.958-11.903 23.101-5.7858 6.1992-13.202 10.354-22.322 12.448-11.706 2.6878-21.142 0.82153-28.2-5.7152-7.1121-6.7049-10.66-17.585-10.561-32.613 0.10246-15.619 3.8869-28.395 11.294-38.199 7.3298-9.7014 16.653-15.336 27.853-16.954 10.631-1.5362 19.103 1.2911 25.501 8.3822 6.3067 6.9898 9.3031 17.651 9.0572 32.014-0.0149 0.87189-0.0607 2.1838-0.13743 3.9352l-58.819 11.228c0.43456 9.9198 2.9395 17.041 7.4826 21.36 4.4992 4.2773 10.094 5.6664 16.755 4.2114 4.9065-1.0716 9.0792-3.4145 12.537-7.021 3.4387-3.5869 6.186-8.7108 8.2529-15.377zm-44.132-16.072 44.641-8.0147c-0.46652-7.3189-2.0278-12.621-4.6947-15.903-4.1268-5.1419-9.597-7.202-16.445-6.1338-6.2728 0.97853-11.64 4.1925-16.069 9.6601-4.4062 5.4948-6.8909 12.304-7.432 20.391zm72.367 37.61 1.6504-85.617 11.024-1.6136-0.27053 12.98c2.8998-6.492 5.5225-10.866 7.869-13.133 2.3814-2.2648 4.9508-3.5935 7.7041-3.9914 3.951-0.57094 7.899 0.3811 11.841 2.8365l-4.2902 13.75c-2.7852-1.592-5.6116-2.1648-8.4784-1.7091-2.5765 0.4095-4.9233 1.7358-7.0363 3.9832-2.1192 2.202-3.6617 5.0591-4.6225 8.5677-1.4443 5.3478-2.2308 11.061-2.3583 17.127l-0.92589 44.061zm40.662-33.521 11.17-4.404c0.47183 5.3217 2.0623 9.1303 4.7593 11.426 2.7202 2.272 6.5478 2.8622 11.459 1.7896 4.9017-1.0706 8.5442-3.0952 10.957-6.0728 2.4043-3.0147 3.6548-6.1941 3.7589-9.5497 0.0935-3.0129-0.85825-5.1805-2.8624-6.5054-1.4055-0.90714-4.964-1.7192-10.725-2.4406-7.8747-0.99435-13.411-2.1168-16.524-3.361-3.0918-1.3119-5.4359-3.4656-7.0215-6.464-1.5492-3.0705-2.275-6.6327-2.1727-10.681 0.0933-3.6887 0.85321-7.2037 2.2778-10.538 1.4653-3.3864 3.3939-6.2944 5.7807-8.7214 1.7851-1.8655 4.1766-3.5581 7.166-5.0756 3.0147-1.5662 6.1989-2.5892 9.5482-3.0732 5.0013-0.72271 9.3133-0.43959 12.952 0.836 3.648 1.2595 6.2818 3.3039 7.9179 6.1313 1.6304 2.765 2.6856 6.6452 3.1701 11.639l-10.226 3.5035c-0.3414-4.0218-1.6097-7.0046-3.8133-8.9498-2.1759-1.9618-5.351-2.6217-9.5435-1.9677-4.9978 0.77962-8.625 2.392-10.85 4.8382-2.2332 2.4554-3.3909 5.1016-3.4668 7.9298-0.0483 1.7986 0.36121 3.3395 1.2269 4.6214 0.86242 1.3302 2.241 2.3127 4.1312 2.9479 1.0836 0.31707 4.2688 0.91929 9.5126 1.7997 7.4854 1.2019 12.617 2.3502 15.47 3.454 2.8752 1.0401 5.0786 2.9311 6.6192 5.6694 1.534 2.7265 2.2253 6.3368 2.0789 10.835-0.14302 4.3949-1.2795 8.754-3.4146 13.091-2.1019 4.2933-5.0833 7.945-8.9603 10.962-3.9039 2.9896-8.3151 5.0548-13.249 6.1878-8.2818 1.9016-14.639 1.2044-19.001-2.1415-4.3649-3.3895-7.0833-9.2932-8.1256-17.717zm62.96 38.843 3.6437-106.4 9.0304-1.3218-0.35662 10.039c2.242-4.2463 4.7107-7.5282 7.4015-9.8476 2.6788-2.3557 5.856-3.7953 9.5197-4.3247 4.7471-0.68598 8.8303 0.36942 12.264 3.1424 3.4033 2.7488 5.8653 6.9606 7.4018 12.629 1.5297 5.5904 2.147 11.883 1.8589 18.892-0.30837 7.5003-1.5656 14.449-3.7765 20.871-2.1814 6.3859-5.222 11.61-9.1393 15.681-3.9105 4.0479-7.9958 6.5698-12.264 7.5497-3.1481 0.72286-5.967 0.48427-8.4515-0.72493-2.4638-1.2245-4.4765-3.031-6.0321-5.4217l-1.3084 36.704zm11.238-68.806c-0.34923 9.833 0.89108 16.774 3.7038 20.819 2.7911 4.0141 6.2636 5.5542 10.406 4.6496 4.1743-0.91171 7.801-4.0334 10.897-9.351 3.116-5.3442 4.8645-12.944 5.2584-22.841 0.37646-9.4583-0.76981-16.316-3.455-20.58-2.6714-4.3017-6.0294-6.1518-10.085-5.5213-4.0567 0.63062-7.78 3.7882-11.157 9.4915-3.357 5.68-5.2177 13.472-5.5679 23.333zm83.598-3.806 8.2014-0.17851c-1.6352 7.3115-4.3044 13.296-8.0262 17.974-3.7488 4.7117-8.4351 7.7238-14.094 9.0231-7.234 1.661-12.925-0.19292-17.017-5.6306-4.1067-5.5544-5.9298-14.244-5.4315-26.05 0.51743-12.258 3.1714-22.169 7.9311-29.656 4.7208-7.4254 10.549-11.618 17.429-12.613 6.5586-0.94774 11.691 1.502 15.439 7.2888 3.7061 5.7215 5.265 14.285 4.7091 25.712-0.0338 0.69396-0.0991 1.7374-0.19587 3.1302l-36.408 6.9499c-0.024 7.8324 1.29 13.539 3.9268 17.116 2.6168 3.55 5.9914 4.862 10.109 3.9626 3.0398-0.66391 5.6704-2.3666 7.9006-5.1028 2.2206-2.7244 4.0607-6.6991 5.5256-11.927zm-26.546-14.177 27.542-4.9448c-0.081-5.8234-0.89402-10.075-2.4446-12.752-2.3936-4.1865-5.6942-5.9643-9.9195-5.3052-3.8604 0.60221-7.2243 2.9885-10.076 7.1708-2.8349 4.1984-4.5391 9.4827-5.1012 15.832zm73.601 1.7994 6.9593 0.0185c-1.1744 7.6477-3.4605 13.939-6.8756 18.901-3.4092 4.9477-7.4722 7.9736-12.213 9.0622-6.0186 1.382-10.776-0.4816-14.234-5.6477-3.4646-5.2712-4.9282-13.625-4.3609-25.047 0.36776-7.4053 1.5133-14.039 3.4327-19.878 1.9148-5.8255 4.5958-10.366 8.0276-13.613 3.4375-3.2711 7.0565-5.1737 10.849-5.7217 4.7388-0.68478 8.4746 0.60681 11.231 3.8482 2.7359 3.1728 4.3224 8.0182 4.7752 14.537l-7.0712 2.8759c-0.43086-4.3428-1.4479-7.5057-3.0563-9.4864-1.5891-1.9948-3.6153-2.8042-6.0839-2.4191-3.7591 0.58641-6.9469 3.1548-9.5463 7.7168-2.6092 4.5405-4.1474 11.329-4.6046 20.331-0.46248 9.1072 0.36065 15.471 2.4578 19.091 2.083 3.5957 4.9501 4.9847 8.5872 4.1903 2.8974-0.63282 5.3724-2.504 7.4344-5.6077 2.0538-3.0914 3.4823-7.4717 4.2919-13.151zm27.235 8.0713 0.41912 9.2512c-1.9265 1.0654-3.6434 1.7717-5.1483 2.1161-2.4705 0.5654-4.3619 0.38515-5.6662-0.54613-1.3094-0.93487-2.1914-2.3481-2.643-4.2398-0.45026-1.9359-0.49192-6.1828-0.12379-12.747l2.0957-37.368-5.1524 0.81013 0.48018-8.674 5.1555-0.75461 0.91121-16.247 7.2711-7.5031-1.2975 22.743 6.8403-1.0012-0.49139 8.4706-6.8363 1.0749-2.1481 37.652c-0.17654 3.0944-0.17599 5.0582 1e-3 5.8927 0.20255 0.8285 0.55418 1.4461 1.0545 1.8529 0.52471 0.40077 1.2898 0.49219 2.294 0.27516 0.75143-0.16241 1.7467-0.51515 2.984-1.0572zm10.415-66.977 0.73658-12.498 6.5817-0.75554-0.74176 12.392zm-4.4246 75.076 3.726-63.223 6.5716-0.96189-3.7527 62.694zm26.521-6.0416-10.298-59.01 6.71-0.98215 5.5946 35.526c0.59524 3.7686 1.1108 7.6908 1.5473 11.767 0.74439-3.3062 1.7437-7.3003 2.9969-11.979l10.255-38.299 6.0752-0.88922-17.181 62.568zm47.925-28.979 5.4597 0.10821c-1.274 5.9775-3.2022 10.825-5.7953 14.555-2.6085 3.7521-5.7908 6.0664-9.5655 6.9332-4.8123 1.105-8.5057-0.61946-11.049-5.2176-2.544-4.684-3.5093-11.845-2.8762-21.469 0.65698-9.9859 2.6488-17.998 5.9575-23.985 3.2867-5.9472 7.2236-9.2386 11.782-9.8974 4.358-0.62976 7.6962 1.4944 10.039 6.3326 2.3208 4.7936 3.1435 11.881 2.4855 21.277-0.04 0.57081-0.10977 1.4287-0.20938 2.5736l-24.247 4.6285c-0.2185 6.4067 0.49609 11.12 2.1357 14.137 1.6295 2.9983 3.8183 4.1896 6.558 3.5912 2.0256-0.44241 3.8095-1.7537 5.3562-3.9302 1.5414-2.1688 2.8631-5.3807 3.9683-9.6377zm-17.155-12.415 18.302-3.2858c0.0937-4.7887-0.33814-8.3026-1.2986-10.541-1.4796-3.4948-3.6183-5.0324-6.4261-4.5944-2.5609 0.39948-4.8366 2.269-6.8194 5.6169-1.97 3.3583-3.2246 7.631-3.7574 12.804z" filter="url(#filter18)" stroke-width="19.099" aria-label="Perspective"/><path d="m134.34 555.07-1.3812-141.05 52.319-6.0059c8.759-1.0055 15.363-1.3297 19.88-0.98559 6.276 0.37761 11.48 1.8771 15.638 4.4857 4.1249 2.5273 7.4 6.3738 9.839 11.532 2.4804 5.1209 3.7001 10.925 3.6699 17.427-0.0516 11.126-3.3847 21.074-10.045 29.932-6.7224 8.8805-19.023 14.978-37.27 18.306l-34.573 6.3054 0.39686 55.845zm17.96-76.433 34.924-5.9043c11.117-1.8796 18.889-5.3143 23.446-10.306 4.5273-4.959 6.7885-11.254 6.8057-18.92 0.0125-5.5644-1.3177-10.132-4.0021-13.712-2.642-3.6692-6.1709-5.8669-10.602-6.5814-2.8752-0.43042-8.223-0.14524-16.11 0.86714l-34.817 4.469zm154.92 9.081 13.209-0.80035c-2.2144 9.2685-6.1696 16.958-11.903 23.101-5.7858 6.1992-13.202 10.354-22.322 12.448-11.706 2.6878-21.142 0.82153-28.2-5.7152-7.1121-6.7049-10.66-17.585-10.561-32.613 0.10246-15.619 3.8869-28.395 11.294-38.199 7.3298-9.7014 16.653-15.336 27.853-16.954 10.631-1.5362 19.103 1.2911 25.501 8.3822 6.3067 6.9898 9.3031 17.651 9.0572 32.014-0.0149 0.87189-0.0607 2.1838-0.13743 3.9352l-58.819 11.228c0.43456 9.9198 2.9395 17.041 7.4826 21.36 4.4992 4.2773 10.094 5.6664 16.755 4.2114 4.9065-1.0716 9.0792-3.4145 12.537-7.021 3.4387-3.5869 6.186-8.7108 8.2529-15.377zm-44.132-16.072 44.641-8.0147c-0.46652-7.3189-2.0278-12.621-4.6947-15.903-4.1268-5.1419-9.597-7.202-16.445-6.1338-6.2728 0.97853-11.64 4.1925-16.069 9.6601-4.4062 5.4948-6.8909 12.304-7.432 20.391zm72.367 37.61 1.6504-85.617 11.024-1.6136-0.27053 12.98c2.8998-6.492 5.5225-10.866 7.869-13.133 2.3814-2.2648 4.9508-3.5935 7.7041-3.9914 3.951-0.57094 7.899 0.3811 11.841 2.8365l-4.2902 13.75c-2.7852-1.592-5.6116-2.1648-8.4784-1.7091-2.5765 0.4095-4.9233 1.7358-7.0363 3.9832-2.1192 2.202-3.6617 5.0591-4.6225 8.5677-1.4443 5.3478-2.2308 11.061-2.3583 17.127l-0.92589 44.061zm40.662-33.521 11.17-4.404c0.47183 5.3217 2.0623 9.1303 4.7593 11.426 2.7202 2.272 6.5478 2.8622 11.459 1.7896 4.9017-1.0706 8.5442-3.0952 10.957-6.0728 2.4043-3.0147 3.6548-6.1941 3.7589-9.5497 0.0935-3.0129-0.85826-5.1805-2.8624-6.5054-1.4055-0.90714-4.964-1.7192-10.725-2.4406-7.8747-0.99435-13.411-2.1168-16.524-3.361-3.0918-1.3119-5.4359-3.4656-7.0215-6.464-1.5492-3.0705-2.275-6.6327-2.1727-10.681 0.0933-3.6887 0.85321-7.2037 2.2778-10.538 1.4653-3.3864 3.3939-6.2944 5.7807-8.7214 1.7851-1.8655 4.1766-3.5581 7.166-5.0756 3.0147-1.5662 6.1989-2.5892 9.5482-3.0732 5.0013-0.72271 9.3133-0.43959 12.952 0.836 3.648 1.2595 6.2818 3.3039 7.9179 6.1313 1.6304 2.765 2.6856 6.6452 3.1701 11.639l-10.226 3.5035c-0.3414-4.0218-1.6097-7.0046-3.8133-8.9498-2.1759-1.9618-5.351-2.6217-9.5435-1.9677-4.9978 0.77962-8.625 2.392-10.85 4.8382-2.2332 2.4554-3.3909 5.1016-3.4668 7.9298-0.0483 1.7986 0.36121 3.3395 1.2269 4.6214 0.86242 1.3302 2.241 2.3127 4.1312 2.9479 1.0836 0.31707 4.2688 0.91929 9.5126 1.7997 7.4854 1.2019 12.617 2.3502 15.47 3.454 2.8752 1.0401 5.0786 2.9311 6.6192 5.6694 1.534 2.7265 2.2253 6.3368 2.0789 10.835-0.14302 4.3949-1.2795 8.754-3.4146 13.091-2.1019 4.2933-5.0833 7.945-8.9603 10.962-3.9039 2.9896-8.3151 5.0548-13.249 6.1878-8.2818 1.9016-14.639 1.2044-19.001-2.1415-4.3649-3.3895-7.0833-9.2932-8.1255-17.717zm62.96 38.843 3.6437-106.4 9.0304-1.3218-0.35662 10.039c2.242-4.2463 4.7107-7.5282 7.4015-9.8476 2.6788-2.3557 5.856-3.7953 9.5197-4.3247 4.7471-0.68598 8.8303 0.36942 12.264 3.1424 3.4033 2.7488 5.8653 6.9606 7.4018 12.629 1.5297 5.5904 2.147 11.883 1.8589 18.892-0.30837 7.5003-1.5656 14.449-3.7765 20.871-2.1814 6.3859-5.222 11.61-9.1393 15.681-3.9105 4.0479-7.9958 6.5698-12.264 7.5497-3.1481 0.72286-5.967 0.48427-8.4515-0.72493-2.4638-1.2245-4.4765-3.031-6.0321-5.4217l-1.3084 36.704zm11.238-68.806c-0.34923 9.833 0.89108 16.774 3.7038 20.819 2.7911 4.0141 6.2636 5.5542 10.406 4.6496 4.1743-0.91171 7.801-4.0334 10.897-9.351 3.116-5.3442 4.8645-12.944 5.2584-22.841 0.37646-9.4583-0.76981-16.316-3.455-20.58-2.6714-4.3017-6.0294-6.1518-10.085-5.5213-4.0567 0.63062-7.78 3.7882-11.157 9.4915-3.357 5.68-5.2177 13.472-5.5679 23.333zm83.598-3.806 8.2014-0.17851c-1.6352 7.3115-4.3044 13.296-8.0262 17.974-3.7488 4.7117-8.4351 7.7238-14.094 9.0231-7.234 1.661-12.925-0.19292-17.017-5.6306-4.1067-5.5544-5.9298-14.244-5.4315-26.05 0.51743-12.258 3.1714-22.169 7.9311-29.656 4.7208-7.4254 10.549-11.618 17.429-12.613 6.5586-0.94774 11.691 1.502 15.439 7.2888 3.7061 5.7215 5.265 14.285 4.7091 25.712-0.0338 0.69396-0.0991 1.7374-0.19587 3.1302l-36.408 6.9499c-0.024 7.8324 1.29 13.539 3.9268 17.116 2.6168 3.55 5.9914 4.862 10.109 3.9626 3.0398-0.66391 5.6704-2.3666 7.9006-5.1028 2.2206-2.7244 4.0607-6.6991 5.5256-11.927zm-26.546-14.177 27.542-4.9448c-0.081-5.8234-0.89402-10.075-2.4446-12.752-2.3936-4.1865-5.6942-5.9643-9.9195-5.3052-3.8604 0.60221-7.2243 2.9885-10.076 7.1708-2.8349 4.1984-4.5391 9.4827-5.1012 15.832zm73.601 1.7994 6.9593 0.0185c-1.1744 7.6477-3.4605 13.939-6.8756 18.901-3.4092 4.9477-7.4722 7.9736-12.213 9.0622-6.0186 1.382-10.776-0.4816-14.234-5.6477-3.4646-5.2712-4.9282-13.625-4.3609-25.047 0.36776-7.4053 1.5133-14.039 3.4327-19.878 1.9148-5.8255 4.5958-10.366 8.0276-13.613 3.4375-3.2711 7.0565-5.1737 10.849-5.7217 4.7388-0.68478 8.4746 0.60681 11.231 3.8482 2.7359 3.1728 4.3224 8.0182 4.7752 14.537l-7.0712 2.8759c-0.43086-4.3428-1.448-7.5057-3.0563-9.4864-1.5891-1.9948-3.6153-2.8042-6.0839-2.4191-3.7591 0.58641-6.9469 3.1548-9.5463 7.7168-2.6092 4.5405-4.1474 11.329-4.6046 20.331-0.46248 9.1072 0.36065 15.471 2.4578 19.091 2.083 3.5957 4.9501 4.9847 8.5872 4.1903 2.8974-0.63282 5.3724-2.504 7.4344-5.6077 2.0538-3.0914 3.4823-7.4717 4.2919-13.151zm27.235 8.0713 0.41912 9.2512c-1.9265 1.0654-3.6434 1.7717-5.1483 2.1161-2.4705 0.5654-4.3619 0.38515-5.6662-0.54613-1.3094-0.93487-2.1914-2.3481-2.643-4.2398-0.45026-1.9359-0.49192-6.1828-0.12379-12.747l2.0957-37.368-5.1524 0.81013 0.48018-8.674 5.1555-0.75461 0.91121-16.247 7.2711-7.5031-1.2975 22.743 6.8403-1.0012-0.49139 8.4706-6.8363 1.0749-2.1481 37.652c-0.17654 3.0944-0.17599 5.0582 1e-3 5.8927 0.20255 0.8285 0.55418 1.4461 1.0545 1.8529 0.52471 0.40077 1.2898 0.49219 2.294 0.27516 0.75143-0.16241 1.7467-0.51515 2.984-1.0572zm10.415-66.977 0.73658-12.498 6.5817-0.75554-0.74176 12.392zm-4.4246 75.076 3.726-63.223 6.5716-0.96189-3.7527 62.694zm26.521-6.0416-10.298-59.01 6.71-0.98215 5.5946 35.526c0.59524 3.7686 1.1108 7.6908 1.5473 11.767 0.74439-3.3062 1.7437-7.3003 2.9969-11.979l10.255-38.299 6.0752-0.88922-17.181 62.568zm47.925-28.979 5.4597 0.10821c-1.274 5.9775-3.2022 10.825-5.7953 14.555-2.6085 3.7521-5.7908 6.0664-9.5655 6.9332-4.8123 1.105-8.5057-0.61946-11.049-5.2176-2.544-4.684-3.5093-11.845-2.8762-21.469 0.65698-9.9859 2.6488-17.998 5.9575-23.985 3.2867-5.9472 7.2236-9.2386 11.782-9.8974 4.358-0.62976 7.6962 1.4944 10.039 6.3326 2.3208 4.7936 3.1435 11.881 2.4855 21.277-0.04 0.57081-0.10977 1.4287-0.20938 2.5736l-24.247 4.6285c-0.2185 6.4067 0.49609 11.12 2.1357 14.137 1.6295 2.9983 3.8183 4.1896 6.558 3.5912 2.0256-0.44241 3.8095-1.7537 5.3562-3.9302 1.5414-2.1688 2.8631-5.3807 3.9683-9.6377zm-17.155-12.415 18.302-3.2858c0.0937-4.7887-0.33814-8.3026-1.2986-10.541-1.4796-3.4948-3.6183-5.0324-6.4261-4.5944-2.5609 0.39948-4.8366 2.269-6.8194 5.6169-1.97 3.3583-3.2246 7.631-3.7574 12.804z" stroke-width="19.099" aria-label="Perspective"/><path d="m731.8 33.344-7.1844 309.23"/></g></svg>
